# xmcd
#
# Track frame offsets:
#	150
#	18333
#	36253
#	51323
#	69657
#	88102
#	100962
#	116335
#	131260
#	146857
#
# Disc length: 2159 seconds
#
# Revision: 1
# Processed by: cddbd v1.5.2PL0 Copyright (c) Steve Scherf et al.
# Submitted via: audiograbber 1.82.01
#
DISCID=8b086d0a
DTITLE=Juice Newton - Greatest Country Hits 
DYEAR=1990
DGENRE=Country
TTITLE0=The Sweetest Thing
TTITLE1=Break It To Me Gently  
TTITLE2=Queen Of Hearts  
TTITLE3=Angel Of The Morning  
TTITLE4=Heart Of The Night  
TTITLE5=Sunshine
TTITLE6=Ride 'Em Cowboy  
TTITLE7=Stranger At My Door
TTITLE8=Lay Back In The Arms Of Someone
TTITLE9=It's A Heartache  
EXTD=
EXTT0=
EXTT1=
EXTT2=
EXTT3=
EXTT4=
EXTT5=
EXTT6=
EXTT7=
EXTT8=
EXTT9=
PLAYORDER=
